<?xml version="1.0" encoding="utf-8"?>
<!-- Generator: Adobe Illustrator 27.5.0, SVG Export Plug-In . SVG Version: 6.00 Build 0)  -->
<svg version="1.1" xmlns="http://www.w3.org/2000/svg" xmlns:xlink="http://www.w3.org/1999/xlink" x="0px" y="0px"
	 viewBox="0 0 500 500" style="enable-background:new 0 0 500 500;" xml:space="preserve">
<g id="BACKGROUND">
	<g>
		<rect style="fill:#FFFFFF;" width="500" height="500"/>
	</g>
</g>
<g id="OBJECTS">
	<path style="opacity:0.1;fill:#EF456E;" d="M448.322,337.049c-5.656-6.57-12.589-12.042-19.942-16.594
		c-8.132-5.034-18.529-7.735-25.675-14.135c-8.22-7.361-7.881-20.29-4.985-30.047c2.947-9.928,8.925-18.741,15.353-26.737
		c11.87-14.766,26.447-27.77,33.774-45.661c6.537-15.962,4.242-33.103-7.247-46.122c-11.914-13.502-29.595-19.395-47.227-19.653
		c-22.076-0.324-42.089,8.317-63.553,11.646c-11.553,1.792-23.029,0.841-33.324-5.033c-8.772-5.005-15.909-12.354-22.654-19.758
		c-12.924-14.186-25.738-28.289-41.061-39.975c-27.819-21.215-64.432-33.524-98.506-20.197
		c-14.982,5.859-29.342,17.355-34.797,32.947c-6.912,19.755,5.922,39.787,15.954,55.914c11.121,17.878,24.156,38.048,19.867,60.193
		c-3.552,18.338-19.282,27.471-35.363,33.649c-13.916,5.346-28.938,9.403-40.803,18.84c-13.646,10.853-21.102,28.713-19.077,46.048
		c2.151,18.411,13.796,34.023,26.578,46.726c12.596,12.518,31.485,27.787,26.888,47.94c-2.301,10.089-9.928,18.269-19.723,21.434
		c-0.294,0.095-0.298,0.435-0.133,0.601c-0.427-0.156-0.819,0.2-0.965,0.558c-0.196,0.481-0.032,1.146,0.104,1.64
		c0.075,0.274,0.198,0.515,0.349,0.735h355.538c1.71-3.865,4.956-6.637,8.043-9.608c3.371-3.244,6.498-6.714,9.347-10.425
		c6.059-7.891,11.031-16.834,13.92-26.383C464.301,368.074,460.167,350.809,448.322,337.049z"/>
	<ellipse style="fill:#C2BEDB;" cx="250" cy="432.006" rx="199.231" ry="8.748"/>
	<g>
		<path style="fill:#EF456E;" d="M379.591,171.315c-3.042,2.295-6.084,4.158-9.665,5.55c-2.2,0.856-4.626,1.331-6.745,2.38
			c-2.44,1.208-3.7,2.788-4.368,4.913c-0.092-6.182-0.557-12.358-1.344-18.497c2.192,1.817,6.341,0.337,8.516-0.915
			c3.414-1.966,5.539-5.327,5.382-9.291c-0.013-0.327-0.385-0.568-0.677-0.375c-1.95,1.288-3.995,2.305-6.241,2.977
			c-1.47,0.44-2.977,0.71-4.34,1.452c-1.504,0.819-2.555,1.949-2.899,3.515c-0.028,0.01-0.055,0.021-0.082,0.034
			c-0.59-4.088-1.346-8.153-2.234-12.191c4.98,1.858,9.122-3.425,8.008-8.179c-0.084-0.359-0.649-0.54-0.887-0.218
			c-1.82,2.467-6.663,2.865-7.676,5.886c-0.403-1.71-0.83-3.415-1.287-5.113c-0.095-0.352-0.618-0.195-0.541,0.156
			c0.75,3.4,1.407,6.823,1.977,10.262c-0.755-0.774-1.801-1.279-2.969-1.422c-1.738-0.212-3.058,0.461-4.711,0.674
			c-1.689,0.218-2.932-0.953-4.593-0.474c-0.536,0.155-0.749,0.675-0.657,1.188c0.498,2.787,2.545,5.428,5.252,6.42
			c3.005,1.102,5.902-0.495,8.332-2.178c0.698,4.873,1.21,9.775,1.522,14.686c-1.917-3.13-5.585-3.923-9.199-4.654
			c-1.665-0.337-2.855-0.939-4.24-1.89c-0.446-0.306-0.745-0.657-1.279-0.653c-2.364,0.018-1.595,3.484-1.268,4.878
			c0.378,1.608,0.914,3.251,1.79,4.661c1.13,1.82,2.928,3.094,5.029,3.514c3.333,0.667,7.385-0.304,9.31-3.306
			c0.262,5.302,0.285,10.614,0.059,15.912c-0.09-0.1-0.181-0.198-0.267-0.296c-0.672-1.187-1.993-1.35-3.366-1.193
			c-1.358,0.154-2.35,0.226-3.681-0.249c-0.725-0.259-1.451-0.609-2.217-0.403c-0.167,0.045-0.256,0.197-0.268,0.359
			c-0.178,2.44,2.154,5.025,4.341,5.747c2.096,0.692,3.853,0.051,5.315-1.19c-0.142,2.385-0.33,4.767-0.578,7.143
			c-0.979-1.288-2.486-1.862-4.267-1.99c-2.147-0.154-4.143,0.14-6.254-0.497c-2.113-0.637-4.163-1.657-6.213-2.473
			c-0.404-0.161-0.913,0.13-0.77,0.614c0.969,3.276,2.562,8.846,5.971,10.396c1.903,0.866,4.404,0.431,6.22-0.428
			c1.945-0.92,3.189-3.053,5.131-3.843c-0.785,6.79-2.007,13.533-3.716,20.182c-0.033,0.127-0.071,0.252-0.104,0.378
			c-0.353-1.46-1.253-2.769-2.6-3.548c-1.34-0.775-2.941-1.06-4.344-1.709c-1.376-0.636-2.623-1.464-4.064-1.956
			c-0.308-0.105-0.631,0.14-0.714,0.425c-0.924,3.161-1.574,8.355,2.058,10.181c2.24,1.126,6.586,1.309,8.862-0.471
			c-1.211,4.24-2.622,8.408-4.222,12.498c-0.729-2.198-2.335-3.911-4.423-5.383c-2.205-1.554-4.732-2.538-6.845-4.238
			c-3.569-2.872-4.957-6.664-6.337-10.895c-0.144-0.442-0.747-0.52-0.984-0.111c-3.904,6.707-5.834,16.326-1.117,23.215
			c3.756,5.486,13.158,3.369,18.596,0.195c-2.64,6.343-5.735,12.496-9.259,18.438c-1.931,3.256-4.003,6.403-6.148,9.494
			c0.651-3.926-2.835-5.876-6.057-7.61c-3.554-1.912-5.889-4.266-7.68-7.95c-1.437-2.956-2.094-6.704-4.022-9.382
			c-0.127-0.176-0.349-0.358-0.586-0.324c-3.598,0.512-5.918,7.201-6.992,10.2c-1.513,4.227-1.347,8.584,0.789,12.573
			c4.036,7.538,13.511,9.79,21.233,7.156c-4.943,6.802-10.129,13.421-14.93,20.355c-0.667,0.964,0.883,2.085,1.649,1.211
			c8.944-10.198,17.213-21.264,24.117-33.078c0.305,7.93,9.132,13.577,16.599,12.287c7.739-1.336,16.18-10.366,17.749-17.925
			c0.098-0.472-0.32-0.932-0.81-0.785c-3.288,0.987-6.666,2.182-10.043,2.809c-4.875,0.905-7.444-0.835-11.982-1.497
			c-3.368-0.492-6.571-0.083-9.414,1.413c4.708-8.523,8.694-17.415,11.68-26.649c5.791,2.631,12.588,2.447,17.943-1.219
			c5.039-3.45,10.353-11.616,9.743-17.861c-0.044-0.446-0.492-0.747-0.907-0.502c-6.272,3.706-12.937,4.561-19.445,7.391
			c-2.016,0.877-3.66,2.038-4.881,3.61c0.081-0.325,0.177-0.646,0.256-0.971c1.121-4.649,2.005-9.34,2.674-14.055
			c7.831,8.696,19.256,0.35,21.302-9.106c0.104-0.48-0.435-0.948-0.881-0.65c-2.758,1.846-5.543,3.121-8.916,2.735
			c-1.464-0.168-2.681-0.438-4.181-0.207c-2.861,0.441-5.201,1.976-6.924,4.172c0.768-6.326,1.151-12.69,1.149-19.056
			c0.069,0.079,0.147,0.154,0.258,0.213c4.371,2.338,9.756,1.087,13.844-1.488c4.186-2.637,6.163-8.733,7.58-13.224
			C380.665,171.505,380.021,170.99,379.591,171.315z"/>
		<path style="fill:#A39EC0;" d="M382.993,217.387c-2.609,2.645-6.13,6.274-6.424,10.166c-0.287,3.801,0.828,8.017,4.072,10.202
			c0.082,0.055,0.163,0.082,0.244,0.101c-4.44,2.348-8.736,4.964-12.864,7.834c0.896-2.012,1.103-4.21,0.354-6.368
			c-0.393-1.132-1.031-1.88-1.688-2.839c-1.514-2.21-1.653-4.622-1.384-7.227c0.044-0.421-0.482-0.624-0.778-0.375
			c-5.838,4.916-7.441,15.963,1.512,18.214c-3.041,2.207-5.986,4.554-8.814,7.052c-0.198,0.175-0.386,0.36-0.583,0.537
			c0.646-1.432,0.849-3.007,0.716-4.736c-0.429-5.583-2.292-10.546-2.023-16.287c0.018-0.38-0.358-0.581-0.685-0.447
			c-4.58,1.879-8.313,8.598-8.859,13.385c-0.58,5.087,1.8,9.894,5.772,12.961c-5.336,5.49-10.066,11.551-14.271,17.98
			c-0.007-2.534-0.904-4.919-2.489-7.086c-2.137-2.92-4.298-4.069-5.466-7.802c-0.809-2.586-1.223-5.383-1.748-8.04
			c-0.078-0.396-0.553-0.518-0.846-0.275c-4.692,3.884-7.873,13.103-5.948,18.992c1.857,5.683,9.052,9.753,14.694,7.039
			c-5.69,9.174-10.354,19.024-14.164,29.025c-0.326,0.857,1.027,1.523,1.453,0.703c3.063-5.907,5.765-11.966,8.683-17.923
			c1.013,6.357,6.08,12.132,12.826,12.164c3.57,0.017,6.669-1.475,9.058-4.09c1.695-1.856,5.503-5.942,4.532-8.64
			c-0.064-0.178-0.273-0.266-0.443-0.289c-2.579-0.356-5.435,0.569-8.027,0.658c-3.23,0.11-5.733-0.648-8.378-2.421
			c-2.398-1.607-5.044-3.318-7.542-1.415c1.364-2.637,2.793-5.243,4.351-7.791c2.843-4.65,5.991-9.08,9.44-13.261
			c-0.207,4.964,1.788,12.3,6.999,12.895c6.544,0.747,12.539-4.15,15.775-9.347c0.197-0.316-0.079-0.708-0.441-0.645
			c-3.46,0.599-6.617,1.03-9.936-0.398c-1.966-0.846-3.584-2.245-5.482-3.208c-1.797-0.913-3.584-1.4-5.386-1.097
			c2.261-2.626,4.646-5.148,7.156-7.557c-0.402,2.244,1.331,5.207,2.942,6.353c2.613,1.859,5.995-0.512,7.858-2.323
			c0.168-0.164,0.22-0.479,0.033-0.655c-0.875-0.823-1.913-1.387-2.864-2.112c-0.97-0.739-1.76-1.75-2.795-2.398
			c-1.04-0.652-2.285-0.796-3.433-0.503c0.076-0.07,0.149-0.142,0.225-0.212c4.005-3.646,8.256-6.986,12.701-10.04
			c0.165,1.646-0.863,3.3-0.786,4.996c0.071,1.584,0.691,3.487,1.998,4.495c2.339,1.805,6.811,0.86,9.453,0.327
			c0.39-0.079,0.405-0.541,0.144-0.764c-1.326-1.128-2.794-2.182-4.018-3.42c-1.223-1.237-1.754-2.737-2.654-4.178
			c-0.747-1.195-1.703-2.034-2.963-2.241c1.566-1.05,3.157-2.06,4.768-3.039c-0.326,1.478-0.124,2.939,1.132,4.146
			c1.31,1.259,3.973,1.93,5.609,0.906c0.109-0.068,0.182-0.186,0.152-0.319c-0.139-0.61-0.651-0.987-1.099-1.397
			c-0.822-0.753-1.139-1.471-1.532-2.475c-0.398-1.015-0.999-1.876-2.074-1.907c-0.1-0.024-0.202-0.052-0.305-0.077
			c3.612-2.113,7.324-4.057,11.118-5.831c-1.383,2.451-0.564,5.634,1.131,7.712c1.068,1.31,2.62,2.093,4.306,2.209
			c1.306,0.09,2.65-0.142,3.91-0.472c1.093-0.286,3.794-1.03,2.934-2.684c-0.194-0.374-0.549-0.453-0.927-0.651
			c-1.174-0.615-2.034-1.222-2.883-2.259c-1.843-2.25-3.75-4.515-6.64-4.696c3.54-1.595,7.147-3.047,10.802-4.359
			c-0.276,2.316-0.321,4.925,1.557,6.614c1.691,1.522,4.288,1.974,6.415,1.293c0.391-0.125,0.676-0.465,0.586-0.896
			c-0.28-1.335-1.554-1.77-2.026-3.028c-0.462-1.232-0.479-2.401-1.269-3.534c-0.53-0.762-1.268-1.304-2.087-1.545
			c2.608-0.872,5.238-1.676,7.885-2.409c0.273-0.076,0.189-0.498-0.091-0.434c-1.352,0.308-2.699,0.639-4.04,0.99
			c1.733-1.822,0.223-5.346,1.271-7.525c0.137-0.285-0.198-0.612-0.479-0.538c-3.727,0.978-5.881,5.816-2.748,8.603
			c-3.143,0.872-6.257,1.844-9.325,2.942c-0.001-0.024-0.004-0.047-0.007-0.07c0.965-0.818,1.365-1.968,1.381-3.319
			c0.014-1.224-0.354-2.374-0.589-3.562c-0.36-1.815-0.406-3.616-0.227-5.451c0.027-0.275-0.279-0.445-0.511-0.334
			c-2.822,1.354-4.381,4.075-4.492,7.182c-0.071,1.979,0.429,5.417,2.505,6.276c-4.571,1.717-9.049,3.672-13.394,5.89
			c1.235-1.25,1.872-2.712,1.814-4.859c-0.051-1.865-0.614-3.732-0.83-5.582c-0.35-3.011-0.174-5.819,0.303-8.788
			C383.874,217.359,383.277,217.099,382.993,217.387z"/>
		<path style="fill:#EFAC3F;" d="M107.814,259.457c1.417,4.491,3.394,10.587,7.58,13.224c4.088,2.575,9.472,3.826,13.843,1.488
			c0.111-0.059,0.189-0.135,0.258-0.213c-0.002,6.366,0.381,12.73,1.149,19.056c-1.723-2.197-4.063-3.732-6.924-4.172
			c-1.5-0.231-2.718,0.039-4.181,0.207c-3.373,0.386-6.158-0.889-8.916-2.735c-0.446-0.299-0.985,0.169-0.881,0.65
			c2.046,9.456,13.471,17.802,21.302,9.106c0.669,4.716,1.552,9.407,2.674,14.055c0.079,0.326,0.174,0.646,0.256,0.971
			c-1.221-1.573-2.865-2.734-4.881-3.61c-6.508-2.83-13.173-3.685-19.445-7.391c-0.415-0.245-0.864,0.056-0.907,0.502
			c-0.611,6.245,4.703,14.411,9.743,17.861c5.355,3.666,12.151,3.85,17.943,1.219c2.986,9.234,6.972,18.126,11.68,26.649
			c-2.843-1.495-6.046-1.904-9.414-1.413c-4.538,0.663-7.107,2.402-11.982,1.497c-3.377-0.627-6.756-1.822-10.043-2.809
			c-0.49-0.147-0.908,0.313-0.81,0.785c1.569,7.559,10.01,16.589,17.749,17.925c7.467,1.289,16.294-4.358,16.599-12.287
			c6.904,11.814,15.173,22.88,24.117,33.078c0.766,0.874,2.316-0.248,1.649-1.211c-4.801-6.934-9.987-13.553-14.93-20.355
			c7.722,2.634,17.197,0.382,21.233-7.156c2.136-3.989,2.302-8.346,0.789-12.573c-1.074-3-3.393-9.688-6.992-10.2
			c-0.238-0.034-0.46,0.148-0.586,0.324c-1.928,2.678-2.585,6.427-4.022,9.382c-1.792,3.684-4.126,6.038-7.68,7.951
			c-3.222,1.733-6.708,3.683-6.057,7.61c-2.145-3.091-4.217-6.238-6.148-9.494c-3.524-5.942-6.619-12.095-9.259-18.438
			c5.438,3.175,14.839,5.291,18.596-0.195c4.717-6.888,2.786-16.508-1.117-23.214c-0.238-0.408-0.84-0.331-0.984,0.111
			c-1.381,4.231-2.769,8.024-6.337,10.895c-2.113,1.7-4.64,2.684-6.845,4.238c-2.088,1.472-3.694,3.185-4.423,5.383
			c-1.601-4.091-3.012-8.258-4.223-12.498c2.276,1.781,6.623,1.597,8.862,0.471c3.632-1.825,2.982-7.02,2.058-10.181
			c-0.083-0.285-0.406-0.53-0.714-0.425c-1.44,0.492-2.688,1.32-4.064,1.956c-1.403,0.648-3.004,0.934-4.344,1.709
			c-1.347,0.779-2.247,2.088-2.6,3.548c-0.033-0.127-0.071-0.252-0.104-0.378c-1.709-6.649-2.931-13.392-3.716-20.182
			c1.942,0.79,3.185,2.923,5.131,3.843c1.817,0.859,4.317,1.293,6.22,0.428c3.409-1.55,5.002-7.121,5.971-10.396
			c0.143-0.484-0.366-0.775-0.77-0.614c-2.05,0.817-4.101,1.836-6.213,2.474c-2.111,0.637-4.107,0.342-6.254,0.496
			c-1.781,0.128-3.288,0.702-4.267,1.99c-0.248-2.376-0.436-4.758-0.578-7.143c1.462,1.241,3.219,1.882,5.315,1.19
			c2.187-0.722,4.518-3.306,4.341-5.747c-0.012-0.162-0.1-0.314-0.268-0.359c-0.765-0.206-1.492,0.144-2.217,0.403
			c-1.331,0.475-2.323,0.404-3.681,0.25c-1.373-0.156-2.694,0.007-3.366,1.193c-0.087,0.098-0.178,0.196-0.267,0.296
			c-0.226-5.299-0.202-10.61,0.059-15.912c1.925,3.002,5.977,3.973,9.31,3.306c2.101-0.42,3.898-1.695,5.029-3.514
			c0.876-1.41,1.412-3.053,1.79-4.661c0.328-1.394,1.096-4.86-1.268-4.878c-0.534-0.004-0.833,0.346-1.279,0.653
			c-1.385,0.951-2.575,1.554-4.24,1.89c-3.614,0.73-7.282,1.523-9.199,4.654c0.312-4.912,0.824-9.813,1.522-14.686
			c2.43,1.683,5.327,3.279,8.332,2.178c2.707-0.992,4.754-3.633,5.253-6.42c0.092-0.512-0.121-1.033-0.657-1.188
			c-1.661-0.479-2.904,0.692-4.593,0.474c-1.654-0.213-2.974-0.887-4.711-0.674c-1.168,0.143-2.213,0.647-2.969,1.422
			c0.57-3.439,1.228-6.862,1.977-10.262c0.077-0.351-0.446-0.508-0.541-0.156c-0.457,1.698-0.884,3.403-1.287,5.113
			c-1.013-3.021-5.856-3.42-7.676-5.887c-0.238-0.322-0.803-0.141-0.887,0.218c-1.114,4.755,3.028,10.037,8.008,8.179
			c-0.887,4.038-1.644,8.103-2.234,12.191c-0.027-0.012-0.055-0.023-0.083-0.034c-0.343-1.566-1.395-2.697-2.899-3.515
			c-1.362-0.742-2.87-1.012-4.34-1.452c-2.246-0.673-4.291-1.689-6.241-2.978c-0.292-0.193-0.664,0.048-0.677,0.375
			c-0.157,3.964,1.968,7.324,5.382,9.291c2.175,1.253,6.323,2.732,8.516,0.915c-0.787,6.139-1.252,12.315-1.344,18.497
			c-0.668-2.125-1.927-3.706-4.368-4.913c-2.119-1.049-4.545-1.524-6.745-2.38c-3.581-1.393-6.623-3.255-9.665-5.55
			C108.304,258.453,107.66,258.968,107.814,259.457z"/>
		<path style="fill:#EF456E;" d="M118.304,315.127c0.478,2.969,0.654,5.777,0.303,8.788c-0.215,1.85-0.779,3.717-0.83,5.582
			c-0.058,2.147,0.579,3.609,1.814,4.859c-4.345-2.217-8.823-4.173-13.394-5.89c2.076-0.858,2.576-4.297,2.505-6.276
			c-0.111-3.107-1.67-5.828-4.492-7.182c-0.232-0.112-0.538,0.059-0.511,0.334c0.178,1.835,0.133,3.636-0.227,5.451
			c-0.236,1.188-0.604,2.338-0.589,3.562c0.016,1.351,0.416,2.501,1.381,3.319c-0.003,0.023-0.006,0.046-0.007,0.07
			c-3.068-1.098-6.182-2.07-9.325-2.942c3.134-2.787,0.979-7.625-2.748-8.602c-0.281-0.074-0.616,0.253-0.479,0.538
			c1.048,2.18-0.461,5.704,1.271,7.525c-1.341-0.35-2.688-0.682-4.04-0.99c-0.28-0.064-0.364,0.359-0.091,0.434
			c2.647,0.732,5.277,1.537,7.885,2.409c-0.819,0.241-1.556,0.784-2.087,1.545c-0.789,1.133-0.807,2.302-1.269,3.534
			c-0.471,1.258-1.746,1.693-2.026,3.028c-0.09,0.431,0.195,0.771,0.585,0.896c2.128,0.681,4.724,0.229,6.415-1.293
			c1.877-1.689,1.833-4.298,1.557-6.614c3.656,1.312,7.262,2.764,10.802,4.359c-2.89,0.182-4.797,2.447-6.64,4.697
			c-0.849,1.037-1.709,1.644-2.883,2.259c-0.378,0.198-0.733,0.277-0.927,0.651c-0.86,1.654,1.84,2.398,2.934,2.684
			c1.261,0.33,2.604,0.562,3.91,0.472c1.686-0.117,3.238-0.9,4.306-2.209c1.695-2.078,2.514-5.262,1.131-7.712
			c3.794,1.775,7.506,3.718,11.117,5.831c-0.103,0.026-0.205,0.053-0.305,0.077c-1.075,0.03-1.677,0.892-2.075,1.907
			c-0.393,1.004-0.71,1.722-1.532,2.474c-0.448,0.41-0.96,0.788-1.099,1.397c-0.03,0.133,0.043,0.251,0.152,0.319
			c1.636,1.024,4.299,0.353,5.609-0.906c1.256-1.206,1.457-2.668,1.132-4.146c1.611,0.979,3.202,1.99,4.768,3.039
			c-1.26,0.207-2.216,1.046-2.963,2.241c-0.9,1.441-1.431,2.94-2.654,4.178c-1.224,1.238-2.692,2.291-4.018,3.42
			c-0.261,0.222-0.247,0.685,0.144,0.764c2.642,0.533,7.114,1.478,9.453-0.327c1.306-1.008,1.926-2.911,1.998-4.495
			c0.076-1.696-0.952-3.35-0.786-4.996c4.445,3.053,8.696,6.394,12.701,10.04c0.076,0.069,0.149,0.142,0.226,0.212
			c-1.148-0.292-2.393-0.148-3.433,0.503c-1.035,0.648-1.825,1.659-2.795,2.398c-0.951,0.725-1.989,1.289-2.864,2.112
			c-0.187,0.176-0.136,0.492,0.033,0.655c1.863,1.811,5.245,4.181,7.859,2.323c1.611-1.146,3.344-4.109,2.942-6.353
			c2.51,2.409,4.895,4.931,7.156,7.557c-1.802-0.303-3.589,0.185-5.386,1.097c-1.898,0.964-3.516,2.363-5.482,3.209
			c-3.319,1.428-6.476,0.997-9.936,0.398c-0.362-0.063-0.638,0.329-0.441,0.645c3.236,5.197,9.231,10.094,15.775,9.347
			c5.212-0.595,7.206-7.931,6.999-12.895c3.449,4.182,6.597,8.611,9.44,13.261c1.558,2.548,2.987,5.154,4.351,7.791
			c-2.497-1.904-5.144-0.192-7.542,1.415c-2.645,1.773-5.148,2.531-8.378,2.421c-2.591-0.089-5.448-1.014-8.027-0.658
			c-0.17,0.023-0.379,0.111-0.443,0.289c-0.971,2.698,2.837,6.784,4.532,8.64c2.389,2.615,5.488,4.107,9.058,4.09
			c6.746-0.032,11.813-5.808,12.826-12.164c2.919,5.957,5.62,12.016,8.683,17.923c0.426,0.821,1.779,0.154,1.453-0.703
			c-3.81-10.001-8.474-19.851-14.164-29.025c5.642,2.714,12.837-1.357,14.694-7.039c1.924-5.889-1.256-15.108-5.948-18.992
			c-0.293-0.242-0.768-0.12-0.846,0.275c-0.525,2.657-0.938,5.453-1.748,8.04c-1.168,3.734-3.329,4.883-5.466,7.802
			c-1.586,2.167-2.483,4.551-2.489,7.086c-4.205-6.428-8.935-12.49-14.271-17.98c3.972-3.067,6.352-7.874,5.772-12.961
			c-0.546-4.787-4.279-11.507-8.859-13.386c-0.327-0.134-0.703,0.067-0.685,0.447c0.269,5.741-1.594,10.704-2.023,16.287
			c-0.133,1.729,0.07,3.305,0.716,4.736c-0.197-0.177-0.385-0.362-0.583-0.537c-2.827-2.498-5.773-4.845-8.814-7.052
			c8.954-2.251,7.351-13.298,1.512-18.214c-0.297-0.25-0.822-0.047-0.778,0.375c0.269,2.605,0.131,5.017-1.384,7.227
			c-0.657,0.959-1.295,1.708-1.688,2.839c-0.749,2.158-0.542,4.356,0.354,6.368c-4.128-2.87-8.424-5.486-12.863-7.834
			c0.08-0.019,0.162-0.046,0.244-0.101c3.243-2.185,4.358-6.401,4.072-10.202c-0.294-3.893-3.815-7.521-6.424-10.166
			C118.834,314.448,118.237,314.707,118.304,315.127z"/>
		<path style="fill:#BAD7FF;" d="M343.683,359.779c-0.366-1.38-0.878-3.254-2.109-4.111c-1.202-0.837-2.814-1.292-4.171-0.646
			c-0.034,0.016-0.059,0.038-0.081,0.061c0.091-1.927,0.064-3.86-0.079-5.786c0.491,0.689,1.177,1.187,2.038,1.361
			c0.451,0.091,0.824,0.026,1.269-0.004c1.027-0.069,1.852,0.356,2.661,0.954c0.131,0.097,0.301-0.038,0.276-0.184
			c-0.486-2.892-3.828-5.58-6.322-3.058c-0.136-1.437-0.337-2.87-0.612-4.294c-0.019-0.1-0.044-0.198-0.064-0.298
			c0.347,0.493,0.829,0.868,1.427,1.162c1.931,0.949,3.937,1.302,5.784,2.512c0.122,0.08,0.262-0.005,0.282-0.139
			c0.273-1.882-1.221-4.43-2.698-5.546c-1.57-1.185-3.625-1.337-5.416-0.622c-0.774-2.838-1.855-5.587-3.161-8.234
			c0.84,0.493,1.804,0.662,2.831,0.561c1.383-0.137,2.186-0.627,3.649-0.284c1.014,0.237,2.02,0.647,3.001,0.992
			c0.146,0.051,0.279-0.082,0.256-0.226c-0.368-2.311-2.797-5.164-5.122-5.678c-2.243-0.496-4.995,1.09-5.199,3.487
			c-1.924-3.674-4.272-7.142-6.836-10.356c-0.22-0.275-0.705,0.042-0.516,0.343c1.356,2.167,2.833,4.245,4.234,6.374
			c-2.301-0.906-5.202-0.358-6.53,1.867c-0.703,1.178-0.815,2.495-0.416,3.796c0.283,0.923,0.891,2.982,1.973,3.187
			c0.072,0.013,0.141-0.039,0.182-0.09c0.621-0.784,0.873-1.91,1.35-2.784c0.594-1.09,1.334-1.77,2.438-2.299
			c1-0.479,2.083-1.021,1.941-2.219c0.606,0.966,1.189,1.948,1.728,2.961c0.983,1.849,1.834,3.756,2.544,5.714
			c-1.602-1.038-4.419-1.811-5.634-0.203c-1.525,2.019-1.077,4.959,0.011,7.045c0.066,0.127,0.25,0.112,0.3-0.02
			c0.478-1.262,0.952-2.391,2.073-3.21c0.664-0.485,1.443-0.747,2.132-1.187c0.653-0.416,1.163-0.912,1.415-1.568
			c0.427,1.261,0.796,2.543,1.102,3.844c-0.664-0.571-1.983-0.577-2.677-0.268c-1.125,0.501-1.002,2.083-0.767,3.054
			c0.021,0.087,0.116,0.166,0.21,0.139c0.443-0.129,0.833-0.362,1.258-0.535c0.434-0.177,0.923-0.24,1.339-0.456
			c0.419-0.217,0.71-0.601,0.837-1.038c0.008,0.039,0.018,0.077,0.026,0.116c0.424,2.037,0.699,4.096,0.841,6.163
			c-0.577-0.267-0.923-0.93-1.499-1.236c-0.538-0.286-1.289-0.453-1.877-0.217c-1.054,0.421-1.615,2.086-1.955,3.064
			c-0.05,0.145,0.1,0.24,0.225,0.197c0.632-0.218,1.268-0.498,1.916-0.661c0.648-0.163,1.248-0.046,1.901-0.062
			c0.541-0.014,1.006-0.166,1.32-0.542c0.042,0.723,0.065,1.447,0.074,2.171c-0.425-0.396-0.948-0.615-1.593-0.435
			c-0.672,0.188-1.415,0.937-1.395,1.679c0.001,0.049,0.026,0.097,0.076,0.113c0.229,0.073,0.454-0.023,0.677-0.091
			c0.41-0.125,0.709-0.09,1.118-0.024c0.414,0.067,0.816,0.036,1.036-0.314c0.028-0.028,0.056-0.057,0.085-0.086
			c-0.006,1.608-0.088,3.216-0.242,4.817c-0.541-0.936-1.754-1.287-2.772-1.132c-0.642,0.098-1.204,0.458-1.572,0.993
			c-0.285,0.414-0.471,0.904-0.608,1.386c-0.119,0.418-0.4,1.456,0.315,1.495c0.162,0.009,0.257-0.093,0.396-0.18
			c0.433-0.268,0.802-0.434,1.31-0.513c1.104-0.17,2.226-0.359,2.851-1.279c-0.164,1.483-0.388,2.96-0.668,4.426
			c-0.712-0.544-1.567-1.068-2.492-0.777c-0.834,0.262-1.491,1.033-1.681,1.87c-0.035,0.154,0.022,0.314,0.182,0.369
			c0.496,0.168,0.889-0.169,1.397-0.079c0.498,0.088,0.888,0.31,1.417,0.271c0.356-0.027,0.679-0.165,0.919-0.389
			c-0.221,1.033-0.469,2.06-0.743,3.079c-0.028,0.105,0.128,0.16,0.161,0.055c0.162-0.508,0.316-1.018,0.462-1.53
			c0.264,0.929,1.725,1.118,2.241,1.891c0.067,0.101,0.241,0.054,0.272-0.053c0.405-1.424-0.775-3.082-2.309-2.59
			c0.326-1.21,0.612-2.431,0.848-3.66c0.008,0.004,0.016,0.008,0.025,0.011c0.082,0.479,0.385,0.836,0.828,1.105
			c0.402,0.244,0.855,0.347,1.294,0.501c0.671,0.235,1.275,0.572,1.848,0.99c0.086,0.063,0.202-0.005,0.21-0.104
			c0.103-1.198-0.492-2.245-1.499-2.889c-0.641-0.41-1.876-0.916-2.566-0.397c0.325-1.848,0.553-3.711,0.668-5.582
			c0.172,0.653,0.531,1.149,1.253,1.549c0.627,0.348,1.355,0.526,2.009,0.816c1.065,0.472,1.959,1.079,2.848,1.817
			C343.52,360.076,343.723,359.929,343.683,359.779z"/>
		<g>
			<path style="fill:#EFAC3F;" d="M424.336,250.034c-21.992,8.182-46.839,5.065-68.042,15.791
				c-8.217,4.157-15.626,10.126-21.268,17.415c-6.627,8.561-9.61,17.962-11.199,28.552c-0.014,0.093,0.006,0.173,0.038,0.245
				c-0.647,1.819-1.055,3.655-1.244,5.675c-0.067,0.72,0.723,1.149,1.333,1.015c13.19-2.902,26.642-3.339,40.048-4.533
				c11.099-0.989,23.261-1.961,31.736-10.03c5.197-4.948,9.588-10.738,12.972-17.065c3.646-6.816,5.367-14.348,8.677-21.303
				c2.402-5.048,5.921-9.531,7.783-14.927C425.331,250.401,424.811,249.857,424.336,250.034z"/>
			<path style="fill:#A39EC0;" d="M407.725,260.591c-19.236,8.742-37.473,19.569-54.836,31.595
				c-7.742,5.363-15.323,11.071-22.441,17.243c-2.105,1.825-4.213,3.647-6.262,5.534c-1.064,0.98-2.112,1.977-3.135,2.999
				c-0.866,0.865-2.12,1.689-1.083,2.994c0.316,0.398,0.917,0.828,1.462,0.699c0.477-0.113,0.587-0.53,0.873-0.89
				c0.946-1.193,2.159-2.253,3.243-3.319c2.172-2.138,4.423-4.196,6.726-6.193c7.657-6.64,15.874-12.632,24.126-18.504
				c16.473-11.722,33.922-21.925,51.73-31.469C408.587,261.033,408.184,260.383,407.725,260.591z"/>
			<path style="fill:#ED9A40;" d="M425.09,250.336c-4.834,4.66-9.217,9.826-12.807,15.028
				c-7.372,10.683-12.583,26.084-24.449,32.662c-11.917,6.606-26.712,5.007-39.703,7.767c-9.448,2.007-17.832,6.349-24.603,12.939
				c0.144,0.024,0.29,0.026,0.427-0.004c13.19-2.902,26.642-3.339,40.048-4.533c11.099-0.989,23.261-1.961,31.736-10.03
				c5.197-4.948,9.588-10.738,12.972-17.065c3.646-6.817,5.367-14.348,8.677-21.303c2.402-5.048,5.921-9.531,7.783-14.927
				C425.233,250.686,425.191,250.494,425.09,250.336z"/>
		</g>
		<g>
			<path style="fill:#EF456E;" d="M396.923,341.835c-12.835-7.52-21.265-20.971-35.033-27.083
				c-5.335-2.369-11.237-3.614-17.078-3.463c-6.861,0.178-12.674,2.482-18.511,5.947c-0.051,0.03-0.082,0.072-0.105,0.117
				c-1.152,0.412-2.218,0.947-3.285,1.664c-0.38,0.256-0.274,0.816,0.036,1.061c6.713,5.314,12.32,11.745,18.281,17.849
				c4.935,5.054,10.288,10.637,17.648,11.564c4.514,0.568,9.117,0.403,13.581-0.471c4.809-0.942,9.198-3.117,13.94-4.279
				c3.442-0.844,7.054-0.914,10.451-2.163C397.141,342.471,397.2,341.998,396.923,341.835z"/>
			<path style="fill:#424060;" d="M385.08,337.91c-12.004-5.942-24.633-10.557-37.499-14.262c-5.737-1.652-11.58-3.087-17.464-4.108
				c-1.74-0.302-3.48-0.607-5.228-0.856c-0.908-0.13-1.818-0.245-2.73-0.337c-0.772-0.078-1.679-0.364-1.904,0.668
				c-0.069,0.315-0.039,0.782,0.243,0.998c0.247,0.189,0.495,0.076,0.787,0.072c0.965-0.014,1.972,0.157,2.93,0.262
				c1.921,0.21,3.834,0.49,5.738,0.82c6.33,1.098,12.567,2.732,18.759,4.43c12.361,3.39,24.366,7.868,36.192,12.788
				C385.208,338.51,385.365,338.052,385.08,337.91z"/>
			<path style="fill:#DD3665;" d="M397.077,342.327c-4.226-0.505-8.521-0.587-12.514-0.264c-8.202,0.663-17.854,4.278-25.841,1.087
				c-8.022-3.204-13.168-11.111-19.73-16.384c-4.773-3.835-10.267-6.212-16.217-6.895c0.046,0.08,0.104,0.153,0.173,0.208
				c6.713,5.314,12.32,11.745,18.281,17.849c4.935,5.054,10.288,10.637,17.648,11.564c4.514,0.568,9.117,0.403,13.581-0.471
				c4.809-0.942,9.198-3.117,13.94-4.279c3.442-0.844,7.054-0.913,10.451-2.162C396.962,342.537,397.04,342.439,397.077,342.327z"/>
		</g>
		<g>
			<path style="fill:#BAD7FF;" d="M93.522,365.784c1.844,3.965,4.879,7.103,7.107,10.76c3.07,5.038,4.976,10.641,8.291,15.547
				c3.078,4.554,6.88,8.619,11.23,11.979c7.094,5.48,16.437,5.261,24.972,5.139c10.309-0.147,20.592-0.876,30.872,0.295
				c0.475,0.054,1.043-0.335,0.935-0.879c-0.303-1.524-0.759-2.891-1.395-4.226c0.019-0.057,0.028-0.12,0.01-0.189
				c-2.046-7.943-5.06-14.871-10.785-20.872c-4.874-5.109-10.99-9.073-17.579-11.592c-17.001-6.5-35.687-2.166-53.089-6.665
				C93.716,364.985,93.363,365.441,93.522,365.784z"/>
			<path style="fill:#424060;" d="M107.581,371.816c15.346,5.143,30.096,11.955,44.274,19.748
				c6.322,3.475,12.549,7.227,18.459,11.368c1.748,1.224,3.498,2.446,5.208,3.723c0.888,0.663,1.765,1.34,2.626,2.038
				c0.728,0.591,1.749,1.12,1.062,2.196c-0.21,0.328-0.634,0.703-1.059,0.648c-0.373-0.048-0.489-0.357-0.735-0.61
				c-0.814-0.834-1.823-1.546-2.732-2.273c-1.824-1.458-3.701-2.849-5.613-4.188c-6.358-4.455-13.091-8.372-19.842-12.196
				c-13.476-7.632-27.576-14.03-41.897-19.897C106.96,372.22,107.216,371.693,107.581,371.816z"/>
			<path style="fill:#A4C8F4;" d="M93.542,365.372c4.05,3.17,7.798,6.76,10.943,10.44c6.46,7.559,11.645,18.882,21.205,22.958
				c9.601,4.093,20.748,1.708,30.864,2.786c7.357,0.784,14.088,3.431,19.767,7.918c-0.108,0.03-0.219,0.043-0.326,0.03
				c-10.279-1.171-20.563-0.442-30.872-0.295c-8.535,0.122-17.878,0.341-24.972-5.139c-4.35-3.36-8.152-7.426-11.23-11.979
				c-3.316-4.906-5.221-10.509-8.292-15.547c-2.229-3.657-5.263-6.795-7.107-10.76C93.46,365.65,93.477,365.5,93.542,365.372z"/>
		</g>
		<g>
			<path style="fill:#EF456E;" d="M115.295,414.02c2.239,1.635,4.884,2.447,7.242,3.793c3.248,1.855,6.022,4.38,9.366,6.087
				c3.104,1.584,6.459,2.674,9.903,3.206c5.616,0.867,10.734-2.118,15.433-4.801c5.675-3.241,11.159-6.797,17.222-9.297
				c0.28-0.116,0.476-0.506,0.25-0.774c-0.635-0.753-1.307-1.371-2.069-1.917c-0.007-0.038-0.021-0.075-0.053-0.108
				c-3.57-3.781-7.366-6.702-12.381-8.277c-4.27-1.341-8.879-1.667-13.307-1.045c-11.427,1.603-20.468,9.735-31.504,12.572
				C115.157,413.518,115.101,413.879,115.295,414.02z"/>
			<path style="fill:#424060;" d="M124.945,413.059c10.092-1.849,20.365-2.589,30.621-2.61c4.574-0.009,9.178,0.165,13.727,0.651
				c1.345,0.144,2.691,0.286,4.031,0.47c0.696,0.096,1.39,0.202,2.081,0.326c0.585,0.105,1.313,0.086,1.262,0.893
				c-0.016,0.246-0.136,0.584-0.389,0.684c-0.222,0.087-0.381-0.049-0.595-0.113c-0.708-0.213-1.485-0.299-2.213-0.424
				c-1.459-0.25-2.927-0.447-4.399-0.604c-4.894-0.524-9.831-0.634-14.749-0.687c-9.818-0.105-19.603,0.665-29.348,1.798
				C124.724,413.474,124.705,413.103,124.945,413.059z"/>
			<path style="fill:#DD3665;" d="M115.179,413.786c3.219,0.518,6.399,1.362,9.272,2.44c5.901,2.215,12.249,6.909,18.803,6.241
				c6.583-0.671,12.037-5.411,17.981-7.913c4.323-1.82,8.869-2.414,13.396-1.664c-0.051,0.049-0.108,0.091-0.171,0.117
				c-6.063,2.5-11.547,6.056-17.222,9.297c-4.699,2.683-9.817,5.668-15.433,4.801c-3.444-0.532-6.8-1.622-9.903-3.206
				c-3.344-1.706-6.118-4.232-9.366-6.087c-2.357-1.346-5.003-2.158-7.242-3.793C115.219,413.965,115.183,413.877,115.179,413.786z"
				/>
		</g>
	</g>
	<g>
		<path style="fill:#5E5C89;" d="M306.565,432.172H192.029c-11.187,0-20.255-9.069-20.255-20.255V150.553
			c0-11.187,9.068-20.255,20.255-20.255h114.536c11.187,0,20.255,9.068,20.255,20.255v261.365
			C326.82,423.104,317.752,432.172,306.565,432.172z"/>
		<path style="fill:#55517A;" d="M305.349,133.687h-47.056v0.071c0,0.527-0.458,1.157-1.364,1.157h-14.717
			c-0.976,0-1.455-0.631-1.455-1.157v-0.071h-47.513c-9.79,0-17.725,7.658-17.725,17.105v260.885
			c0,9.447,7.936,17.105,17.725,17.105h112.104c9.789,0,17.725-7.658,17.725-17.105V150.792
			C323.075,141.345,315.139,133.687,305.349,133.687z"/>
		<path style="fill:#BAD7FF;" d="M320.223,410.422V153.596c0-9.479-7.963-17.164-17.786-17.164h-41.493
			c-2.023,0-3.77,1.544-3.755,3.496c0.042,5.378-5.692,9.478-11.573,6.868c-2.724-1.209-4.163-3.978-4.213-6.87
			c-0.034-1.935-1.67-3.494-3.683-3.494h-42.843c-9.116,0-16.507,7.132-16.507,15.929v257.523c0,9.043,7.596,16.374,16.967,16.374
			h108.474C312.876,426.258,320.223,419.168,320.223,410.422z"/>
		<rect x="279.694" y="229.046" style="fill:#EF456E;" width="20.264" height="29.046"/>
		<g>
			
				<line style="fill:none;stroke:#FFFFFF;stroke-width:0.25;stroke-miterlimit:10;" x1="198.636" y1="165.107" x2="198.636" y2="316.184"/>
			
				<line style="fill:none;stroke:#FFFFFF;stroke-width:0.25;stroke-miterlimit:10;" x1="320.223" y1="199.999" x2="178.372" y2="199.999"/>
			
				<line style="fill:none;stroke:#FFFFFF;stroke-width:0.25;stroke-miterlimit:10;" x1="320.223" y1="165.107" x2="178.372" y2="165.107"/>
			
				<line style="fill:none;stroke:#FFFFFF;stroke-width:0.25;stroke-miterlimit:10;" x1="320.223" y1="229.046" x2="178.372" y2="229.046"/>
			
				<line style="fill:none;stroke:#FFFFFF;stroke-width:0.25;stroke-miterlimit:10;" x1="320.223" y1="258.091" x2="178.372" y2="258.091"/>
			
				<line style="fill:none;stroke:#FFFFFF;stroke-width:0.25;stroke-miterlimit:10;" x1="320.223" y1="287.138" x2="178.372" y2="287.138"/>
			
				<line style="fill:none;stroke:#FFFFFF;stroke-width:0.25;stroke-miterlimit:10;" x1="320.223" y1="316.184" x2="178.372" y2="316.184"/>
			
				<line style="fill:none;stroke:#FFFFFF;stroke-width:0.25;stroke-miterlimit:10;" x1="218.901" y1="165.107" x2="218.901" y2="316.184"/>
			
				<line style="fill:none;stroke:#FFFFFF;stroke-width:0.25;stroke-miterlimit:10;" x1="239.165" y1="165.107" x2="239.165" y2="316.184"/>
			
				<line style="fill:none;stroke:#FFFFFF;stroke-width:0.25;stroke-miterlimit:10;" x1="259.43" y1="165.107" x2="259.43" y2="316.184"/>
			
				<line style="fill:none;stroke:#FFFFFF;stroke-width:0.25;stroke-miterlimit:10;" x1="279.694" y1="165.107" x2="279.694" y2="316.184"/>
			
				<line style="fill:none;stroke:#FFFFFF;stroke-width:0.25;stroke-miterlimit:10;" x1="299.958" y1="165.107" x2="299.958" y2="316.184"/>
		</g>
		<g>
			
				<text transform="matrix(1 0 0 1 190.9995 174.0708)" style="fill:#55517A; font-family:'BloggerSans-Medium'; font-size:7.2152px;">1</text>
			
				<text transform="matrix(1 0 0 1 211.2471 174.0708)" style="fill:#55517A; font-family:'BloggerSans-Medium'; font-size:7.2152px;">2</text>
			
				<text transform="matrix(1 0 0 1 231.625 174.0708)" style="fill:#55517A; font-family:'BloggerSans-Medium'; font-size:7.2152px;">3</text>
			
				<text transform="matrix(1 0 0 1 251.7793 174.0708)" style="fill:#55517A; font-family:'BloggerSans-Medium'; font-size:7.2152px;">4</text>
			
				<text transform="matrix(1 0 0 1 272.1797 174.0708)" style="fill:#55517A; font-family:'BloggerSans-Medium'; font-size:7.2152px;">5</text>
			
				<text transform="matrix(1 0 0 1 292.334 174.0708)" style="fill:#55517A; font-family:'BloggerSans-Medium'; font-size:7.2152px;">6</text>
			
				<text transform="matrix(1 0 0 1 312.7549 174.0708)" style="fill:#55517A; font-family:'BloggerSans-Medium'; font-size:7.2152px;">7</text>
			
				<text transform="matrix(1 0 0 1 190.9995 208.9693)" style="fill:#55517A; font-family:'BloggerSans-Medium'; font-size:7.2152px;">8</text>
			
				<text transform="matrix(1 0 0 1 211.2471 208.9693)" style="fill:#55517A; font-family:'BloggerSans-Medium'; font-size:7.2152px;">9</text>
			<g>
				
					<text transform="matrix(1 0 0 1 229.7744 208.9693)" style="fill:#55517A; font-family:'BloggerSans-Medium'; font-size:7.2152px;">10</text>
			</g>
			
				<text transform="matrix(1 0 0 1 249.9287 208.9693)" style="fill:#55517A; font-family:'BloggerSans-Medium'; font-size:7.2152px;">11</text>
			
				<text transform="matrix(1 0 0 1 270.3291 208.9693)" style="fill:#55517A; font-family:'BloggerSans-Medium'; font-size:7.2152px;">12</text>
			
				<text transform="matrix(1 0 0 1 290.4834 208.9693)" style="fill:#55517A; font-family:'BloggerSans-Medium'; font-size:7.2152px;">13</text>
			
				<text transform="matrix(1 0 0 1 310.9043 208.9693)" style="fill:#55517A; font-family:'BloggerSans-Medium'; font-size:7.2152px;">14</text>
			
				<text transform="matrix(1 0 0 1 189.1489 237.8198)" style="fill:#55517A; font-family:'BloggerSans-Medium'; font-size:7.2152px;">15</text>
			
				<text transform="matrix(1 0 0 1 209.3965 237.8198)" style="fill:#55517A; font-family:'BloggerSans-Medium'; font-size:7.2152px;">16</text>
			
				<text transform="matrix(1 0 0 1 229.7744 237.8198)" style="fill:#55517A; font-family:'BloggerSans-Medium'; font-size:7.2152px;">17</text>
			
				<text transform="matrix(1 0 0 1 249.9287 237.8198)" style="fill:#55517A; font-family:'BloggerSans-Medium'; font-size:7.2152px;">18</text>
			
				<text transform="matrix(1 0 0 1 270.3291 237.8198)" style="fill:#55517A; font-family:'BloggerSans-Medium'; font-size:7.2152px;">19</text>
			
				<text transform="matrix(1 0 0 1 290.4834 237.8198)" style="fill:#55517A; font-family:'BloggerSans-Medium'; font-size:7.2152px;">20</text>
			
				<text transform="matrix(1 0 0 1 310.9043 237.8198)" style="fill:#55517A; font-family:'BloggerSans-Medium'; font-size:7.2152px;">21</text>
			
				<text transform="matrix(1 0 0 1 189.1489 266.5869)" style="fill:#55517A; font-family:'BloggerSans-Medium'; font-size:7.2152px;">22</text>
			
				<text transform="matrix(1 0 0 1 209.3965 266.5869)" style="fill:#55517A; font-family:'BloggerSans-Medium'; font-size:7.2152px;">23</text>
			
				<text transform="matrix(1 0 0 1 229.7744 266.5869)" style="fill:#55517A; font-family:'BloggerSans-Medium'; font-size:7.2152px;">24</text>
			
				<text transform="matrix(1 0 0 1 189.1489 295.7417)" style="fill:#55517A; font-family:'BloggerSans-Medium'; font-size:7.2152px;">29</text>
			
				<text transform="matrix(1 0 0 1 209.3965 295.7417)" style="fill:#55517A; font-family:'BloggerSans-Medium'; font-size:7.2152px;">30</text>
			
				<text transform="matrix(1 0 0 1 249.9287 266.5869)" style="fill:#55517A; font-family:'BloggerSans-Medium'; font-size:7.2152px;">25</text>
			
				<text transform="matrix(1 0 0 1 270.3291 266.5869)" style="fill:#55517A; font-family:'BloggerSans-Medium'; font-size:7.2152px;">26</text>
			
				<text transform="matrix(1 0 0 1 290.4834 266.5869)" style="fill:#55517A; font-family:'BloggerSans-Medium'; font-size:7.2152px;">27</text>
			
				<text transform="matrix(1 0 0 1 310.9043 266.5869)" style="fill:#55517A; font-family:'BloggerSans-Medium'; font-size:7.2152px;">28</text>
		</g>
		<g>
			<circle style="fill:#5E5C89;" cx="249.297" cy="141.646" r="3.483"/>
			<circle style="fill:#55517A;" cx="249.297" cy="141.646" r="2.695"/>
			<circle style="fill:#BAD7FF;" cx="249.297" cy="141.646" r="0.657"/>
		</g>
		<path style="fill:#A39EC0;" d="M256.952,132.822H242.1c-0.405,0-0.734,0.329-0.734,0.734v0.509c0,0.405,0.329,0.734,0.734,0.734
			h14.853c0.405,0,0.734-0.329,0.734-0.734v-0.509C257.686,133.15,257.357,132.822,256.952,132.822z"/>
		<path style="fill:#A39EC0;" d="M328.226,231.095c0-1.097-0.522-2.128-1.405-2.778l0,0v45.878l0,0
			c0.884-0.65,1.405-1.681,1.405-2.778V231.095z"/>
		<path style="fill:#A39EC0;" d="M328.226,189.085c0-1.097-0.522-2.128-1.405-2.778l0,0v20.541l0,0
			c0.884-0.65,1.405-1.681,1.405-2.778V189.085z"/>
		<text transform="matrix(1.0038 0 0 1 228.0547 159.9839)" style="fill:#FFFFFF; font-family:'Lato-Bold'; font-size:9.019px;">OCTOBER</text>
		<g>
			<path style="fill:#EF456E;" d="M277.566,156.882l-1.689,1.689c-0.161,0.16-0.251,0.378-0.251,0.605l0,0
				c0,0.762,0.922,1.144,1.461,0.605l2.899-2.899c0.334-0.334,0.334-0.876,0-1.21l-2.899-2.899
				c-0.539-0.539-1.461-0.157-1.461,0.605l0,0c0,0.227,0.09,0.445,0.251,0.605l1.689,1.689
				C277.901,156.006,277.901,156.547,277.566,156.882z"/>
			<path style="fill:#EF456E;" d="M221.028,155.671l1.689-1.689c0.161-0.16,0.251-0.378,0.251-0.605l0,0
				c0-0.762-0.922-1.144-1.461-0.605l-2.899,2.899c-0.334,0.334-0.334,0.876,0,1.21l2.899,2.899
				c0.539,0.539,1.461,0.157,1.461-0.605l0,0c0-0.227-0.09-0.445-0.251-0.605l-1.689-1.689
				C220.694,156.547,220.694,156.006,221.028,155.671z"/>
		</g>
		<rect x="188.44" y="323.377" style="fill:#EF456E;" width="57.244" height="42.238"/>
		<g>
			<polygon style="fill:#FFFFFF;" points="230.056,340.874 220.684,340.874 220.684,331.502 213.441,331.502 213.441,340.874 
				204.069,340.874 204.069,348.117 213.441,348.117 213.441,357.489 220.684,357.489 220.684,348.117 230.056,348.117 			"/>
		</g>
		<g>
			<rect x="254.75" y="323.377" style="fill:#FFFFFF;" width="57.244" height="42.238"/>
		</g>
		<g>
			<rect x="260.548" y="328.627" style="fill:#A39EC0;" width="25.766" height="3.847"/>
			<rect x="260.548" y="335.19" style="fill:#C2BEDB;" width="19.459" height="2.817"/>
			<rect x="260.548" y="340.373" style="fill:#C2BEDB;" width="38.985" height="2.817"/>
			<rect x="260.548" y="345.556" style="fill:#C2BEDB;" width="12.27" height="2.817"/>
			<rect x="275.386" y="345.556" style="fill:#C2BEDB;" width="17.754" height="2.817"/>
			<rect x="295.71" y="345.556" style="fill:#C2BEDB;" width="11.105" height="2.817"/>
			<rect x="260.548" y="350.738" style="fill:#C2BEDB;" width="26.235" height="2.817"/>
			<rect x="289.444" y="350.738" style="fill:#C2BEDB;" width="7.376" height="2.817"/>
			<rect x="260.548" y="355.921" style="fill:#C2BEDB;" width="19.459" height="2.817"/>
			<rect x="282.974" y="335.19" style="fill:#C2BEDB;" width="23.841" height="2.817"/>
			<rect x="288.634" y="328.627" style="fill:#A39EC0;" width="9.013" height="3.847"/>
		</g>
		<g>
			<rect x="188.44" y="374.773" style="fill:#FFFFFF;" width="57.244" height="42.238"/>
		</g>
		<g>
			<rect x="193.929" y="380.836" style="fill:#A39EC0;" width="25.766" height="3.847"/>
			<rect x="193.929" y="387.399" style="fill:#C2BEDB;" width="19.459" height="2.817"/>
			<rect x="193.929" y="392.582" style="fill:#C2BEDB;" width="38.985" height="2.817"/>
			<rect x="193.929" y="397.765" style="fill:#C2BEDB;" width="12.27" height="2.817"/>
			<rect x="208.767" y="397.765" style="fill:#C2BEDB;" width="17.754" height="2.817"/>
			<rect x="229.092" y="397.765" style="fill:#C2BEDB;" width="11.105" height="2.817"/>
			<rect x="193.929" y="402.947" style="fill:#C2BEDB;" width="26.235" height="2.817"/>
			<rect x="222.825" y="402.947" style="fill:#C2BEDB;" width="7.376" height="2.817"/>
			<rect x="193.929" y="408.13" style="fill:#C2BEDB;" width="19.459" height="2.817"/>
			<rect x="216.355" y="387.399" style="fill:#C2BEDB;" width="23.841" height="2.817"/>
			<rect x="222.015" y="380.836" style="fill:#A39EC0;" width="9.013" height="3.847"/>
		</g>
		<rect x="254.75" y="374.773" style="fill:#EFAC3F;" width="57.244" height="42.238"/>
		<g style="opacity:0.2;">
			<path style="fill:#FFFFFF;" d="M302.437,136.432h-41.493c-2.023,0-3.77,1.544-3.755,3.496c0.042,5.378-5.692,9.478-11.573,6.868
				c-2.724-1.209-4.163-3.978-4.213-6.87c-0.034-1.935-1.67-3.494-3.683-3.494H200.78l-22.408,22.408v135.385l141.791-141.791
				C319.541,143.499,311.854,136.432,302.437,136.432z"/>
			<polygon style="fill:#FFFFFF;" points="178.372,314.268 178.372,345.103 320.223,203.252 320.223,172.416 			"/>
			<path style="fill:#FFFFFF;" d="M178.372,409.884c0,9.043,7.596,16.374,16.967,16.374h57.305l67.579-67.579V223.294
				L178.372,365.145V409.884z"/>
			<polygon style="fill:#FFFFFF;" points="303.522,426.258 320.223,409.557 320.223,378.721 272.686,426.258 			"/>
		</g>
	</g>
	<g>
		<path style="fill:#F4CBA2;" d="M162.514,319.765c-0.28-0.324-0.489-0.583-0.811-0.858c-0.887-0.758-1.241-2.051-1.502-3.145
			c-0.324-1.357-0.489-2.761-1.016-4.063c-0.084-0.208-0.183-0.42-0.359-0.558c-0.119-0.094-0.264-0.147-0.407-0.198
			c-0.715-0.257-1.336-0.53-2.1-0.525c-0.608,0.004-1.219,0.074-1.813,0.208c-1.021,0.23-2.374,0.721-2.672,1.858
			c-0.067,0.107-0.113,0.228-0.118,0.358c-0.062,1.861,0.581,3.649,0.839,5.472c0.223,1.572-0.139,3.14-0.184,4.711
			c-0.046,1.586,0.14,3.188,0.519,4.729c0.199,0.808,0.596,2.146,1.537,2.353c0.361,0.079,0.65-0.061,0.833-0.292
			c0.757,1.212,1.693,1.796,2.671,0.82c0.3,0.454,0.671,0.824,1.292,0.863c0.546,0.034,0.997-0.214,1.235-0.672
			c0.513,0.468,1.065,0.656,1.621,0.329c0.94-0.553,0.683-1.869,0.473-2.729c-0.424-1.732-1.872-3.552-1.803-5.391
			c1.151,0.512,3.759,0.83,3.492-1.023C164.111,321.097,163.068,320.406,162.514,319.765z"/>
		<path style="fill:#EDBB8E;" d="M276.635,243.699c-0.076-0.089-0.151-0.178-0.225-0.268c-0.214-0.261-0.395-0.55-0.635-0.79
			c-0.542-0.628-1.219-0.907-2.044-0.928c-0.811-0.02-1.64,0.191-2.35,0.582c-0.79,0.436-1.42,1.163-2.163,1.677
			c-0.471,0.326-1.192,0.64-1.482,1.164c-0.617,1.117,0.389,2.174,1.381,2.532c1.509,0.545,2.858-0.002,4.333-0.028
			c0.63,0.453,1.417-0.056,1.522-0.697c0.674,0.147,1.231-0.258,1.812-0.586c0.198-0.112,0.392-0.231,0.576-0.365
			c0.144-0.104,0.342-0.202,0.431-0.361c0.08-0.143,0.055-0.325-0.014-0.474c-0.104-0.223-0.28-0.413-0.429-0.606
			C277.122,244.258,276.875,243.981,276.635,243.699z"/>
		<path style="fill:#F4CBA2;" d="M273.465,244.209c0.424-0.949,1.71-0.913,2.577-1.018c1.148-0.138,2.29-0.318,3.426-0.537
			c0.764-0.148,1.779-0.224,2.221-0.969c0.104-0.173,0.145-0.388,0.085-0.581c-0.251-0.812-1.429-0.845-2.097-0.754
			c-1.096,0.148-2.193,0.29-3.289,0.425c-2.797,0.344-5.556,0.962-8.31,1.546c-0.265,0.056-0.53,0.113-0.795,0.17
			c-1.383,0.298-2.77,0.579-4.164,0.819c-1.508,0.26-3.017,0.543-4.484,0.99c-0.994,0.298-2.523,0.608-3.024,1.615
			c-0.55,1.105,0.059,4.316,1.615,4.119c0.065,0.042,0.137,0.077,0.22,0.094c2.561,0.534,5.121-0.323,7.613-0.824
			c0.628-0.126,1.388-0.34,2.013-0.112c0.241,0.088,0.458,0.231,0.675,0.367c0.461,0.29,1.116,0.52,1.667,0.512
			c0.486-0.008,0.94-0.22,1.393-0.396c0.837-0.326,1.719-0.538,2.612-0.629c0.486-0.05,0.978-0.064,1.453-0.175
			c0.71-0.166,1.364-0.555,1.858-1.091c0.237-0.257,0.415-0.479,0.443-0.827c0.022-0.283-0.035-0.665-0.417-0.64
			c-0.76,0.05-1.672,0.273-2.421,0.112c-0.937-0.202-1.198-1.286-0.913-2.109C273.436,244.277,273.45,244.242,273.465,244.209z"/>
		<path style="fill:#424060;" d="M201.475,180.634c-0.673-1.266-1.707-1.914-3.127-1.44c-0.683,0.228-1.359,0.521-2.028,0.844
			c1.98-3.049,3.127-7.393-0.786-8.482c-2.044-0.569-3.769,0.804-4.945,2.32c-0.952,1.227-1.895,2.35-2.904,3.384
			c-0.217-0.952-0.609-2.116-1.69-2.327c-1.63-0.318-3.312,1.331-4.641,2.067c-1.233,0.616-2.405,1.336-3.619,1.983
			c-1.447,0.772-2.972,1.629-3.719,3.142c-0.229,0.463,0.029,0.41-0.532,0.429c-1.259,0.043-2.258-0.148-3.346,0.685
			c-1.828,1.401-2.252,4.115-2.333,6.264c-0.202,5.322,1.003,10.73,2.271,15.866c0.299,1.211,0.559,2.452,0.903,3.644
			c0.48,1.665,1.66,3.058,2.959,4.161c1.105,0.939,3.106,2.243,4.622,1.674c1.352-0.507,2.504-1.719,3.355-2.841
			c1.883-2.483,2.931-5.505,3.961-8.411c0.129-0.365,0.258-0.729,0.389-1.093c0.201-0.558-0.059-0.982-0.461-1.193
			c0.15-0.642,0.298-1.286,0.524-1.902c0.519-1.415,1.258-2.699,2.168-3.88c0.102-0.039,0.201-0.099,0.293-0.19
			c0.838-0.828,1.626-1.776,2.528-2.53c1.174-0.982,2.617-1.477,3.955-2.175c1.457-0.76,4.015-1.982,3.248-4.01
			C200.791,185.311,202.736,183.008,201.475,180.634z"/>
		<path style="fill:#F4CBA2;" d="M194.391,426.341c0,0.108,0.398,4.704,0.398,4.704h11.578v-5.681L194.391,426.341z"/>
		<polygon style="fill:#F4CBA2;" points="165.535,425.389 164.934,431.045 153.355,431.045 154.116,425.515 		"/>
		<polygon style="fill:#55517A;" points="196.139,311.455 173.334,311.455 164.156,311.455 153.388,426.914 165.683,426.914 
			184.366,356.086 188.274,371.894 194.002,426.914 206.962,426.914 206.962,311.455 		"/>
		<path style="fill:#424060;" d="M176.631,315.222c-0.532-0.146-1.084,0.156-1.236,0.688c-2.194,7.68-10.172,10.56-12.708,11.292
			l-0.198,2.124c1.529-0.353,12.043-3.114,14.829-12.867C177.47,315.928,177.162,315.374,176.631,315.222z"/>
		<path style="fill:#424060;" d="M206.962,322.282c-2.774-1.767-5.616-4.502-6.793-8.622c-0.152-0.531-0.705-0.835-1.236-0.688
			c-0.531,0.152-0.838,0.706-0.686,1.236c1.515,5.304,5.316,8.537,8.716,10.443V322.282z"/>
		<g>
			<path style="fill:#424060;" d="M187.888,338.347c-0.02,0-0.04-0.001-0.061-0.004c-0.274-0.033-0.469-0.283-0.436-0.557
				c0.013-0.107,1.308-10.828,1.308-23.213c0-0.276,0.224-0.5,0.5-0.5c0.276,0,0.5,0.224,0.5,0.5
				c0,12.448-1.302,23.227-1.315,23.334C188.352,338.161,188.137,338.347,187.888,338.347z"/>
		</g>
		<g>
			<path style="fill:#424060;" d="M188.729,328.805c-0.211,0-0.407-0.135-0.476-0.347c-0.085-0.261,0.058-0.541,0.317-0.628
				c0.085-0.029,1.823-0.681,1.94-3.853c0.133-3.61,0.265-8.495,0.265-8.496l1,0.027c0,0-0.133,4.891-0.266,8.506
				c-0.144,3.919-2.526,4.733-2.627,4.766C188.832,328.797,188.78,328.805,188.729,328.805z"/>
		</g>
		<path style="fill:#424060;" d="M194.002,426.914c0,0,12.868,0,12.878,0c-3.518,0-5.354-3.879-6.548-6.622
			c-6.575-15.113-3.91-31.635-6.541-47.46c-1.43-8.6-3.427-17.105-4.482-25.767c-0.048-0.39-0.522-0.566-0.757-0.205
			c-1.927,2.956-3.299,5.959-4.177,9.258l3.899,15.776L194.002,426.914z"/>
		<path style="fill:#EF456E;" d="M206.962,230.006l24.123,17.502l31.147-5.47c0,0,2.583,3.646,1.216,9.572
			c0,0-20.83,6.476-30.083,10.229c-9.253,3.753-28.108-6.735-28.108-6.735L206.962,230.006z"/>
		<path style="fill:#DD3665;" d="M263.815,249.013c-9.097,1.42-17.829,5.45-26.613,7.793c-5.83,1.555-12.459,0.806-17.553-2.593
			c-0.194-0.129-0.382-0.266-0.571-0.402c-1.62-1.17-3.086-2.536-4.699-3.715c-1.674-1.224-3.578-2.077-5.267-3.279
			c-0.201-0.143-0.401-0.288-0.601-0.433c-0.736-0.51-1.676-1.143-2.618-1.071c-0.185,0.48-0.058,1.259-0.093,1.78
			c-0.181,2.668-0.363,5.336-0.545,8.014c0,0,18.855,10.488,28.108,6.735c9.253-3.753,30.083-10.229,30.083-10.229
			C263.661,250.684,263.77,249.822,263.815,249.013z"/>
		<path style="fill:#EF456E;" d="M206.962,230.006c-28.841-14.17-48.211,2.706-48.211,2.706s-12.192,33.856-12.828,41.643
			l5.822,43.367c0,0,1.881,0.854,4.756,0.35c2.965-0.52,4.614-1.667,4.614-1.667l-1.861-37.9l4.036-11.762l1.805,13.53l-2.182,34.61
			c0,0,9.757,2.436,22.933,2.436c12.409,0,22.419-2.436,22.419-2.436s0.372-32.005,1.289-48.751
			C210.471,249.386,206.962,230.006,206.962,230.006z"/>
		<path style="fill:#DD3665;" d="M190.284,224.762c-0.157-0.118-0.298-0.255-0.428-0.402c-0.29-0.326-0.523-0.7-0.852-0.991
			c-0.323-0.287-0.71-0.506-1.122-0.636c-0.552-0.173-1.138-0.107-1.708-0.129c-0.696-0.027-1.39-0.083-2.087-0.092
			c-0.755-0.01-1.505-0.013-2.259-0.018c-0.965-0.006-1.887,0.122-2.731,0.613c-0.8,0.465-1.471,1.123-2.081,1.812
			c1.258,5.01,11.331,2.888,12.669,1.941C191.145,225.826,190.478,224.907,190.284,224.762z"/>
		<path style="fill:#DD3665;" d="M185.847,317.32c12.409,0,22.419-2.436,22.419-2.436s0.011-0.937,0.033-2.545
			c-5.316,0.595-10.589,1.154-16.024,1.136c-6.39-0.021-22.175,1.729-23.648-6.182c-0.617-3.312,0.209-7.249,0.212-10.613
			c0.003-3.772-0.065-7.57-0.308-11.335c-0.152-2.357-0.516-4.695-0.955-7.014c-0.457-2.414-0.995-4.811-1.461-7.223
			c-0.233-1.207-0.448-2.417-0.626-3.634c-0.108-0.738-0.21-1.477-0.295-2.217c-0.042-0.37-0.08-0.741-0.111-1.113
			c-0.024-0.286,0.012-0.666-0.182-0.903c-0.02-0.025-0.047-0.049-0.079-0.05c-0.044-0.002-0.077,0.036-0.103,0.072
			c-0.819,1.094-1.245,2.547-1.56,3.869l0.133-0.388l1.805,13.53l-2.182,34.61C162.914,314.884,172.671,317.32,185.847,317.32z"/>
		<path style="fill:#BAD7FF;" d="M219.42,432.931c-0.288-0.339-0.606-0.643-0.926-0.909c-1.438-1.191-3.111-1.94-4.796-2.492
			c-1.803-0.591-3.639-1.078-5.487-1.43c-0.313-0.06-0.627-0.116-0.941-0.168c-0.224-0.037-0.511-0.142-0.736-0.115
			c-0.182,0.022-0.345,0.148-0.513,0.243c-0.436,0.245-0.862,0.514-1.296,0.764c-1.193,0.688-2.48,1.058-3.797,1.244
			c-1.009,0.142-2.029,0.169-3.043,0.092c-0.885-0.067-1.828-0.231-2.564-0.857c-0.205-0.175-1.422-1.393-1.485-0.58
			c-0.212,2.709,0.08,5.416,0.27,8.114c0.087,1.24,0.927,1.336,2.029,1.361c6.176,0.139,12.353,0.222,18.53,0.308
			c1.141,0.016,2.288,0.069,3.428,0.006c0.96-0.053,2.086-0.591,2.4-1.757C220.889,435.277,220.288,433.951,219.42,432.931z"/>
		<g>
			<path style="fill:#FFFFFF;" d="M194.071,436.372c0.011,0.155,0.024,0.31,0.035,0.465c0.087,1.24,0.927,1.336,2.029,1.361
				c6.176,0.139,12.353,0.222,18.53,0.308c1.141,0.016,2.288,0.069,3.428,0.006c0.96-0.053,2.086-0.591,2.4-1.757
				c0.002-0.006,0.002-0.011,0.003-0.017L194.071,436.372z"/>
		</g>
		<path style="fill:#BAD7FF;" d="M140.422,436.755c0.3,1.165,1.375,1.704,2.293,1.757c1.089,0.063,2.185,0.01,3.275-0.006
			c5.901-0.086,11.804-0.17,17.704-0.308c1.053-0.025,1.855-0.122,1.938-1.361c0.181-2.698,0.46-5.405,0.258-8.114
			c-0.061-0.812-1.223,0.406-1.419,0.58c-0.703,0.626-1.604,0.79-2.45,0.857c-0.969,0.077-1.943,0.05-2.907-0.092
			c-1.259-0.186-2.488-0.556-3.628-1.244c-0.415-0.25-0.822-0.519-1.238-0.764c-0.16-0.095-0.316-0.221-0.49-0.243
			c-0.215-0.027-0.489,0.077-0.704,0.115c-0.3,0.052-0.6,0.108-0.899,0.168c-1.766,0.352-3.52,0.84-5.243,1.43
			c-1.61,0.552-3.208,1.302-4.582,2.492c-0.306,0.265-0.61,0.57-0.885,0.909C140.616,433.951,140.042,435.277,140.422,436.755z"/>
		<g>
			<path style="fill:#FFFFFF;" d="M165.666,436.372c-0.011,0.155-0.023,0.31-0.033,0.465c-0.083,1.24-0.885,1.336-1.938,1.361
				c-5.901,0.139-11.803,0.222-17.704,0.308c-1.09,0.016-2.186,0.069-3.275,0.006c-0.917-0.053-1.993-0.591-2.293-1.757
				c-0.001-0.006-0.002-0.011-0.003-0.017L165.666,436.372z"/>
		</g>
		<path style="fill:#F4CBA2;" d="M197.959,208.537c-0.506-4.073-0.539-8.706-1.509-12.67c-0.414-1.691-1.302-5.312-3.028-6.497
			c-2.13-1.463-8.59-0.207-10.96-0.102c-2.024,0.09-5.168-0.337-6.978,0.868c-2.363,1.573-2.809,5.969-3.361,8.893
			c-1.542-1.553-4.375-0.451-4.526,2.049c-0.106,1.745,0.782,3.684,2.149,4.859c0.34,0.292,0.722,0.545,1.146,0.717
			c0.314,0.128,1.079,0.094,1.299,0.249c0,0-0.01,1.7,0.123,2.651c0.528,3.767,1.661,6.812,4.34,9.668
			c0.231,0.246,1.618,1.231,1.618,1.231c0.234,0.907,0.283,1.847,0.264,2.777c-0.014,0.723-0.248,1.723,0.183,2.376
			c0.342,0.518,2.052,0.558,2.66,0.618c2.091,0.205,4.202,0.024,6.277-0.245c0.485-0.063,1.303-0.089,1.576-0.554
			c0.28-0.477-0.624-4.596-0.426-4.631c3.315-0.58,6.325-1.999,8.001-4.535C198.356,213.915,198.287,211.176,197.959,208.537z"/>
		<path style="fill:#EDBB8E;" d="M196.187,217.068c-3.534,0.733-7.111,1.41-10.695,0.607c-5.296-1.186-7.538-4.942-8.42-9.964
			c-0.888-5.056-4.201-15.769,2.162-18.418c0.099-0.007,0.199-0.015,0.299-0.023c-1.479,0.019-2.991,0.162-4.048,0.866
			c-2.363,1.573-2.809,5.969-3.361,8.893c-1.542-1.553-4.375-0.451-4.526,2.049c-0.106,1.745,0.782,3.684,2.149,4.859
			c0.34,0.292,0.722,0.545,1.146,0.717c0.314,0.128,1.079,0.094,1.299,0.249c0,0-0.01,1.7,0.123,2.651
			c0.528,3.767,1.661,6.812,4.34,9.668c0.231,0.246,1.618,1.231,1.618,1.231c0.234,0.907,0.283,1.847,0.264,2.777
			c-0.014,0.723-0.248,1.723,0.183,2.376c0.342,0.518,2.052,0.558,2.66,0.617c2.091,0.205,4.202,0.024,6.277-0.245
			c0.486-0.063,1.303-0.089,1.576-0.554c0.28-0.477-0.624-4.596-0.426-4.631C191.748,220.279,194.444,219.099,196.187,217.068z"/>
		<path style="fill:#424060;" d="M188.875,206.338c-4.654,0.384-7.47,3.521-9.335,7.674c-3.405-1.346-4.129-6.071-4.987-9.27
			c-0.79-2.947-1.84-6.043-2.137-9.098c-0.052-0.53-0.829-0.55-0.799,0c0.048,0.88,0.155,1.772,0.29,2.668
			c-0.008,0.029-0.03,0.047-0.028,0.081c0.4,8.066-1.823,19.715,7.778,22.386c4.478,1.246,9.62,1.138,13.949-0.875
			c3.235-1.505,4.547-5.187,4.546-8.62C198.15,211.284,193.144,205.986,188.875,206.338z"/>
		<path style="fill:#F4CBA2;" d="M192.794,211.252c-1.41-0.113-2.826-0.062-4.231,0.082c-1.148,0.118-2.407,0.107-3.453,0.661
			c-0.258,0.137-0.386,0.396-0.347,0.683c0.288,2.117,1.559,4.094,3.9,4.025c1.267-0.037,2.651-0.395,3.49-1.428
			c0.858-1.057,1.085-2.605,0.833-3.915c-0.005-0.026-0.011-0.053-0.029-0.072c-0.023-0.024-0.06-0.028-0.093-0.031
			C192.84,211.255,192.817,211.253,192.794,211.252z"/>
	</g>
	<g>
		<g>
			<path style="fill:#BAD7FF;" d="M124.775,150.842c-17.398,0-31.552,14.154-31.552,31.552s14.154,31.552,31.552,31.552
				c17.398,0,31.552-14.154,31.552-31.552S142.173,150.842,124.775,150.842z M124.775,211.839
				c-16.235,0-29.443-13.209-29.443-29.444c0-16.235,13.208-29.444,29.443-29.444c16.235,0,29.444,13.209,29.444,29.444
				C154.219,198.63,141.01,211.839,124.775,211.839z"/>
			<circle style="fill:#BAD7FF;" cx="124.775" cy="158.027" r="2.251"/>
			<circle style="fill:#BAD7FF;" cx="124.775" cy="206.763" r="2.251"/>
			<circle style="fill:#BAD7FF;" cx="149.143" cy="182.395" r="2.251"/>
			<circle style="fill:#BAD7FF;" cx="100.407" cy="182.395" r="2.251"/>
			<path style="fill:#BAD7FF;" d="M137.689,180.752h-11.271v-16.99c0-0.907-0.736-1.643-1.643-1.643
				c-0.908,0-1.643,0.735-1.643,1.643v18.632c0,0.908,0.736,1.643,1.643,1.643h12.914c0.908,0,1.643-0.735,1.643-1.643
				C139.332,181.487,138.597,180.752,137.689,180.752z"/>
		</g>
		<path style="fill:#BAD7FF;" d="M350.186,114.863c1.831-2.682,2.807-5.995,2.53-9.547c-0.566-7.264-6.473-13.116-13.742-13.618
			c-8.676-0.6-15.9,6.26-15.9,14.807c0,3.1,0.951,5.977,2.576,8.358l11.059,17.297c0.564,0.883,1.854,0.883,2.418,0L350.186,114.863
			z M337.919,95.627c6.008,0,10.878,4.87,10.878,10.878c0,6.008-4.87,10.878-10.878,10.878c-6.008,0-10.878-4.87-10.878-10.878
			C327.041,100.497,331.911,95.627,337.919,95.627z"/>
	</g>
</g>
</svg>
